HIERARCHY
ROOT Hips
{
	OFFSET 0.00000 0.00000 0.00000
	CHANNELS 6 Xposition Yposition Zposition Yrotation Zrotation Xrotation 
	JOINT Lumbar
	{
		OFFSET 0 0 0
		CHANNELS 3 Zrotation Xrotation Yrotation
		JOINT Neck
		{
			OFFSET 0.00 0.2701 0.00
			CHANNELS 3 Zrotation Xrotation Yrotation
			End Site
			{
				OFFSET 0.00 0.1379 0.00
			}
		}
		JOINT RightShoulder
		{
			OFFSET 0.0119 0.2289 0.1181
			CHANNELS 3 Zrotation Xrotation Yrotation
			JOINT RightElbow
			{
				OFFSET 0.00 -0.1475 0.00
				CHANNELS 2 Zrotation Yrotation
				JOINT RightWrist
				{
					OFFSET 0.00 -0.1605 0.00
					CHANNELS 2 Zrotation Xrotation
					End Site
					{
						OFFSET 0.0040 -0.1068 0.0006
					}
				}
			}
		}
		JOINT LeftShoulder
		{
			OFFSET 0.0119 0.2289 -0.1181
			CHANNELS 3 Zrotation Xrotation Yrotation
			JOINT LeftElbow
			{
				OFFSET 0.00 -0.1475 0.00
				CHANNELS 2 Zrotation Yrotation
				JOINT LeftWrist
				{
					OFFSET 0.00 -0.1605 0.00
					CHANNELS 2 Zrotation Xrotation
					End Site
					{
						OFFSET 0.0040 -0.1068 -0.0006
					}
				}
			}
		}
	}
	JOINT RightHip
	{
		OFFSET 0.0316 -0.0424 0.0458
		CHANNELS 3 Zrotation Xrotation Yrotation
		JOINT RightKnee
		{
			OFFSET 0.00 -0.2438 0.00
			CHANNELS 1 Zrotation
			JOINT RightAnkle
			{
				OFFSET 0.00 -0.2449 0.00
				CHANNELS 3 Zrotation Xrotation Yrotation
				End Site
				{
					OFFSET 0.1237 -0.0542 0.0051
				}
			}
		}
	}
	JOINT LeftHip
	{
		OFFSET 0.0316 -0.0424 -0.0458
		CHANNELS 3 Zrotation Xrotation Yrotation
		JOINT LeftKnee
		{
			OFFSET 0.00 -0.2438 0.00
			CHANNELS 1 Zrotation
			JOINT LeftAnkle
			{
				OFFSET 0.00 -0.2449 0.00
				CHANNELS 3 Zrotation Xrotation Yrotation
				End Site
				{
					OFFSET 0.1237 -0.0542 -0.0051
				}
			}
		}
	}
}
MOTION
Frames: 34
Frame Time: 0.02
-3e-05 -1e-05 -0 23.17864 -25.57911 -6.7851 44.01019 2.82041 -3.36645 -8.63367 -2.27527 -0.99745 -62.5667 -81.2779 -87.1464 8.08058 62.88854 -6.29034 2.67508 82.83009 97.80173 -55.63448 5.78678 -103.19862 12.0615 -2.42873 39.50251 -3.66545 -5.66862 -22.15515 -6.67626 -2.61167 -3.49658 43.75375 9.07544 2.50657 -27.64999 -6.6008 2.58881 3.49288
-8e-05 -2e-05 1e-05 23.18531 -25.58724 -6.78971 44.01139 2.81745 -3.36157 -8.62733 -2.27535 -0.99769 -62.5667 -81.26624 -87.1464 8.08469 62.82652 -6.20993 2.7048 83.09359 97.78307 -55.63441 5.7868 -103.23085 12.0697 -2.46928 39.51466 -3.69194 -5.80925 -22.16033 -6.6733 -2.59894 -3.48993 43.76957 9.11299 2.65432 -27.65292 -6.59876 2.58104 3.48767
-0.00013 -3e-05 2e-05 23.19197 -25.59534 -6.79432 44.01257 2.8145 -3.3567 -8.621 -2.27543 -0.99793 -62.5667 -81.25463 -87.1464 8.0888 62.76484 -6.1297 2.73447 83.35661 97.76447 -55.63433 5.78683 -103.26298 12.07788 -2.50976 39.52676 -3.71841 -5.94978 -22.16549 -6.67035 -2.58621 -3.48327 43.78533 9.15043 2.80168 -27.65585 -6.59673 2.57328 3.48246
-0.00018 -4e-05 4e-05 23.19861 -25.60344 -6.79892 44.01377 2.81156 -3.35182 -8.61468 -2.27551 -0.99817 -62.5667 -81.24302 -87.1464 8.0929 62.70287 -6.04953 2.76411 83.61935 97.74587 -55.63426 5.78686 -103.29511 12.08606 -2.55019 39.53887 -3.74483 -6.09003 -22.17065 -6.66741 -2.57351 -3.47663 43.80109 9.18787 2.94899 -27.65877 -6.5947 2.56553 3.47726
-0.00022 -5e-05 5e-05 23.20527 -25.61158 -6.80353 44.015 2.80861 -3.34694 -8.60834 -2.27559 -0.99841 -62.5667 -81.23135 -87.1464 8.09701 62.64092 -5.9692 2.7938 83.88244 97.72723 -55.63418 5.78688 -103.32732 12.09425 -2.59066 39.55105 -3.77124 -6.23025 -22.17583 -6.66446 -2.56082 -3.46999 43.81691 9.2254 3.09668 -27.6617 -6.59266 2.55778 3.47206
-0.00027 -6e-05 6e-05 23.21192 -25.61959 -6.80811 44.01609 2.80566 -3.3421 -8.60205 -2.27567 -0.99866 -62.5667 -81.21987 -87.1464 8.10111 62.58005 -5.88914 2.82344 84.14527 97.7087 -55.63411 5.78691 -103.35929 12.10241 -2.63119 39.56298 -3.79783 -6.37141 -22.18095 -6.66149 -2.548 -3.4633 43.83254 9.26266 3.24331 -27.6646 -6.59063 2.55001 3.46686
-0.00032 -7e-05 8e-05 23.21859 -25.62785 -6.81275 44.01744 2.80271 -3.33717 -8.59566 -2.27575 -0.9989 -62.5667 -81.20802 -87.1464 8.10523 62.51597 -5.80869 2.8531 84.40836 97.68996 -55.63403 5.78694 -103.39171 12.11062 -2.67154 39.57538 -3.82403 -6.51054 -22.18619 -6.65857 -2.53545 -3.45672 43.84854 9.30042 3.39192 -27.66756 -6.5886 2.54228 3.46165
-0.00037 -9e-05 9e-05 23.22523 -25.63588 -6.81733 44.01856 2.79976 -3.33232 -8.58937 -2.27583 -0.99914 -62.5667 -81.19651 -87.1464 8.10933 62.45685 -5.7285 2.88282 84.67115 97.67142 -55.63396 5.78696 -103.42371 12.11879 -2.71205 39.58736 -3.85058 -6.6515 -22.19132 -6.65561 -2.52266 -3.45004 43.8642 9.33772 3.53869 -27.67047 -6.58657 2.53452 3.45645
-0.00041 -0.0001 0.0001 23.23187 -25.6436 -6.82185 44.01936 2.79682 -3.32758 -8.58317 -2.2759 -0.99938 -62.5667 -81.18542 -87.1464 8.1134 62.39585 -5.64898 2.91231 84.93399 97.65311 -55.63388 5.78699 -103.45523 12.12688 -2.75282 39.59881 -3.87764 -6.79498 -22.19632 -6.6526 -2.50956 -3.44322 43.87943 9.37446 3.68333 -27.67331 -6.58453 2.52669 3.45125
-0.00047 -0.00011 0.00012 23.23862 -25.65304 -6.82676 44.02192 2.79384 -3.32224 -8.57634 -2.27601 -0.99961 -62.5667 -81.17194 -87.1464 8.11763 62.3218 -5.56666 2.9422 85.19782 97.63343 -55.6338 5.78702 -103.48963 12.13537 -2.79229 39.61326 -3.90199 -6.92482 -22.20206 -6.64985 -2.49817 -3.43716 43.89708 9.41446 3.84057 -27.67653 -6.58252 2.51916 3.44604
-0.00051 -0.00012 0.00013 23.24508 -25.6589 -6.83085 44.02081 2.79094 -3.31815 -8.5709 -2.27604 -0.99987 -62.5667 -81.16349 -87.1464 8.12152 62.29053 -5.48959 2.97187 85.45868 97.61666 -55.63374 5.78704 -103.51786 12.14302 -2.83435 39.62142 -3.93193 -7.08284 -22.20623 -6.64656 -2.48323 -3.42952 43.90966 9.44754 3.97101 -27.67895 -6.58045 2.51105 3.44086
-0.00053 -0.00012 0.00013 23.25109 -25.65443 -6.83269 44.00908 2.78828 -3.31775 -8.56891 -2.27595 -1.00019 -62.5667 -81.16904 -87.1464 8.12453 62.24786 -5.43275 2.99562 85.7187 97.60767 -55.63373 5.78704 -103.52971 12.14827 -2.88486 39.61167 -3.97834 -7.32393 -22.20601 -6.64162 -2.45791 -3.41721 43.90792 9.46195 4.02919 -27.67911 -6.57816 2.50109 3.43555
-0.00055 -0.00012 0.00013 23.25676 -25.64645 -6.83371 43.99375 2.7857 -3.31856 -8.56839 -2.27577 -1.00054 -62.5667 -81.1796 -87.1464 8.12718 62.26869 -5.38032 3.01997 85.97435 97.60162 -55.63373 5.78704 -103.53526 12.15269 -2.93771 39.59572 -4.03014 -7.59217 -22.20421 -6.63616 -2.42916 -3.40337 43.90116 9.46939 4.06028 -27.67846 -6.57582 2.49061 3.43032
-0.00056 -0.00013 0.00013 23.26236 -25.64044 -6.83511 43.98043 2.78307 -3.31863 -8.56742 -2.27556 -1.00088 -62.5667 -81.18774 -87.1464 8.12998 62.34883 -5.32184 3.04771 86.2273 97.59433 -55.63373 5.78703 -103.54329 12.15757 -2.98861 39.58306 -4.07876 -7.84436 -22.20317 -6.63103 -2.40239 -3.39044 43.897 9.47981 4.10285 -27.67821 -6.57353 2.48054 3.4252
-0.00058 -0.00013 0.00013 23.26889 -25.63289 -6.83648 43.96555 2.78047 -3.31948 -8.56552 -2.27563 -1.00121 -62.5667 -81.1965 -87.1464 8.13287 62.07063 -5.2796 3.06067 86.50021 97.58662 -55.63373 5.78703 -103.55285 12.16215 -3.04329 39.56845 -4.13053 -8.11265 -22.20194 -6.6255 -2.3738 -3.37658 43.89155 9.49095 4.14864 -27.67785 -6.5711 2.46973 3.41946
-0.0006 -0.00013 0.00012 23.27341 -25.62766 -6.83772 43.95302 2.77784 -3.31904 -8.56592 -2.27513 -1.00157 -62.5667 -81.20517 -87.1464 8.13543 62.53659 -5.20567 3.10369 86.73029 97.5805 -55.63374 5.78703 -103.55782 12.16709 -3.09061 39.55637 -4.17694 -8.35338 -22.20073 -6.62068 -2.34822 -3.36431 43.8875 9.49901 4.18162 -27.67752 -6.56896 2.46034 3.41503
-0.00059 -0.00013 0.00011 23.27232 -25.63016 -6.83883 43.94838 2.77505 -3.31438 -8.572 -2.27285 -1.00204 -62.5667 -81.21226 -87.1464 8.13776 65.19095 -5.03359 3.23702 86.84572 97.57789 -55.6338 5.78701 -103.55109 12.17378 -3.1175 39.55335 -4.20812 -8.51521 -22.2001 -6.61786 -2.33164 -3.35665 43.88926 9.49956 4.18308 -27.67762 -6.56764 2.45496 3.41427
-0.00058 -0.00013 0.0001 23.26927 -25.63502 -6.83983 43.94612 2.77223 -3.30847 -8.58039 -2.27006 -1.00254 -62.5667 -81.21908 -87.1464 8.13972 68.56481 -4.83117 3.39922 86.91819 97.57678 -55.63389 5.78698 -103.54013 12.18077 -3.13686 39.55297 -4.23359 -8.64768 -22.19953 -6.61579 -2.31825 -3.35067 43.89246 9.49738 4.17307 -27.67777 -6.56662 2.45104 3.41481
-0.00057 -0.00013 9e-05 23.26718 -25.63847 -6.84087 43.94245 2.76945 -3.30336 -8.58792 -2.26769 -1.00303 -62.5667 -81.22613 -87.1464 8.14139 71.51069 -4.64901 3.54331 87.0081 97.57513 -55.63396 5.78696 -103.5314 12.18728 -3.15931 39.55102 -4.26109 -8.79098 -22.19884 -6.61341 -2.30353 -3.344 43.89452 9.49695 4.17023 -27.67781 -6.56548 2.44651 3.41471
-0.00057 -0.00013 8e-05 23.2647 -25.64324 -6.84193 43.94014 2.76656 -3.29728 -8.5947 -2.2645 -1.00353 -62.56669 -81.23302 -87.14639 8.14471 74.88256 -4.44004 3.7084 87.10483 97.57311 -55.63404 5.78693 -103.52089 12.19522 -3.1831 39.55046 -4.29108 -8.94563 -22.19846 -6.61088 -2.28817 -3.33695 43.89842 9.4942 4.15841 -27.67816 -6.56427 2.44176 3.41483
-0.00055 -0.00013 7e-05 23.26265 -25.64585 -6.84293 43.93551 2.7639 -3.29295 -8.60356 -2.26289 -1.004 -62.5667 -81.23996 -87.1464 8.14483 77.54046 -4.27921 3.83674 87.17951 97.57202 -55.6341 5.78691 -103.51349 12.20026 -3.20248 39.54769 -4.31454 -9.0696 -22.19751 -6.60884 -2.27496 -3.33112 43.89892 9.49562 4.16266 -27.67792 -6.56326 2.43778 3.41478
-0.00053 -0.00012 7e-05 23.26162 -25.64202 -6.84377 43.92473 2.76186 -3.29335 -8.6177 -2.26586 -1.00436 -62.56674 -81.24847 -87.14647 8.13377 78.02166 -4.26227 3.85536 87.18421 97.57426 -55.63411 5.7869 -103.51315 12.19714 -3.20946 39.53829 -4.32062 -9.11336 -22.19469 -6.60793 -2.26682 -3.32824 43.88952 9.51006 4.21642 -27.67596 -6.56275 2.43594 3.4141
-0.0005 -0.00011 6e-05 23.26123 -25.63594 -6.84456 43.9114 2.76004 -3.29563 -8.63384 -2.27041 -1.00469 -62.56679 -81.25669 -87.14654 8.12019 77.7644 -4.29405 3.83621 87.17205 97.57708 -55.63411 5.78691 -103.51665 12.1911 -3.21253 39.52657 -4.32043 -9.12762 -22.19134 -6.60749 -2.26078 -3.32654 43.87669 9.52868 4.28647 -27.67344 -6.56241 2.43475 3.41318
-0.00048 -0.00011 6e-05 23.26093 -25.63086 -6.84536 43.89874 2.75812 -3.29726 -8.64894 -2.27418 -1.00504 -62.56683 -81.26417 -87.14661 8.10901 77.86424 -4.3013 3.83517 87.1803 97.57891 -55.63411 5.7869 -103.52005 12.18645 -3.21888 39.5159 -4.32358 -9.15706 -22.18841 -6.60686 -2.25386 -3.3243 43.86558 9.54487 4.34762 -27.67125 -6.56196 2.433 3.41227
-0.00045 -0.0001 5e-05 23.25886 -25.62598 -6.84617 43.88825 2.75622 -3.29789 -8.66455 -2.27823 -1.00535 -62.56688 -81.27556 -87.14669 8.0915 77.89927 -4.31795 3.83124 87.13258 97.58409 -55.63411 5.7869 -103.51617 12.18155 -3.21908 39.50542 -4.32448 -9.1781 -22.18475 -6.60618 -2.24673 -3.32211 43.85389 9.56317 4.41455 -27.66874 -6.56169 2.4324 3.4118
-0.00042 -9e-05 5e-05 23.26079 -25.62006 -6.84698 43.8726 2.75429 -3.30118 -8.67969 -2.28202 -1.00575 -62.56691 -81.27848 -87.14675 8.08785 77.88351 -4.32653 3.82385 87.19879 97.58213 -55.63411 5.78691 -103.52867 12.17649 -3.23067 39.49384 -4.32864 -9.20989 -22.18247 -6.60569 -2.2405 -3.32008 43.84251 9.57813 4.47364 -27.66676 -6.56106 2.42956 3.41035
-0.00042 -9e-05 3e-05 23.27252 -25.61236 -6.84768 43.84329 2.75261 -3.3105 -8.69182 -2.2852 -1.00641 -62.56688 -81.26037 -87.1467 8.11249 77.91342 -4.30454 3.81727 87.57762 97.5625 -55.63411 5.7869 -103.58516 12.17199 -3.27931 39.48072 -4.34329 -9.27974 -22.18417 -6.6056 -2.23623 -3.31815 43.83335 9.58278 4.50579 -27.66632 -6.55936 2.42024 3.40625
-0.00043 -9e-05 1e-05 23.28847 -25.60358 -6.84841 43.80891 2.75081 -3.32256 -8.70364 -2.28799 -1.00717 -62.56683 -81.23337 -87.14661 8.1533 77.91326 -4.27187 3.80829 88.07331 97.53519 -55.63411 5.7869 -103.65936 12.16775 -3.33843 39.46641 -4.36145 -9.36133 -22.18727 -6.60568 -2.23278 -3.31634 43.82453 9.58399 4.52992 -27.66643 -6.55729 2.40864 3.40117
-0.00044 -9e-05 -1e-05 23.30326 -25.59488 -6.84919 43.77681 2.74882 -3.33396 -8.71634 -2.29067 -1.00789 -62.56679 -81.20893 -87.14655 8.19346 77.91962 -4.24229 3.79935 88.5194 97.51007 -55.6341 5.78691 -103.72406 12.16269 -3.39009 39.45198 -4.37804 -9.43702 -22.18971 -6.60568 -2.22892 -3.31449 43.8152 9.5868 4.55845 -27.6663 -6.55541 2.39815 3.39655
-0.00044 -8e-05 -3e-05 23.31496 -25.58779 -6.84969 43.74459 2.7479 -3.34308 -8.72591 -2.29464 -1.00861 -62.56673 -81.19058 -87.14646 8.20462 77.93022 -4.22326 3.79299 88.94903 97.49077 -55.63414 5.78689 -103.78979 12.15889 -3.45413 39.44012 -4.39436 -9.51425 -22.19222 -6.60571 -2.22525 -3.3126 43.8072 9.58946 4.58377 -27.66608 -6.55346 2.38742 3.39188
-0.00045 -8e-05 -6e-05 23.33399 -25.57719 -6.85077 43.71164 2.7447 -3.35741 -8.742 -2.29577 -1.00936 -62.5667 -81.15763 -87.14641 8.28086 77.93516 -4.17731 3.78186 89.44221 97.45713 -55.63408 5.78691 -103.86405 12.15456 -3.49349 39.42281 -4.41211 -9.59121 -22.19493 -6.60571 -2.22139 -3.31082 43.79663 9.59173 4.61437 -27.66622 -6.55154 2.37659 3.38705
-0.00049 -9e-05 -0.00011 23.37303 -25.55644 -6.85351 43.6762 2.73531 -3.38678 -8.77526 -2.2895 -1.01016 -62.56675 -81.08476 -87.14649 8.52657 77.93152 -4.07415 3.75215 90.07394 97.38878 -55.63371 5.78703 -103.90026 12.1325 -3.47568 39.38961 -4.43327 -9.66663 -22.19787 -6.60559 -2.21643 -3.30919 43.77819 9.59239 4.65556 -27.66709 -6.54991 2.36654 3.38232
-0.00053 -9e-05 -0.00018 23.41917 -25.53234 -6.85681 43.64054 2.72361 -3.42102 -8.81521 -2.28032 -1.011 -62.56681 -80.9978 -87.14656 8.83878 77.92961 -3.94089 3.7188 90.76889 97.30565 -55.63326 5.78717 -103.95413 12.11344 -3.43097 39.35121 -4.45571 -9.74111 -22.20097 -6.60545 -2.21129 -3.30768 43.75732 9.59302 4.70342 -27.66833 -6.5483 2.35637 3.37741
-0.00057 -9e-05 -0.00024 23.46153 -25.51026 -6.85983 43.60615 2.71291 -3.45213 -8.85275 -2.27221 -1.01186 -62.56687 -80.91847 -87.14671 9.12419 77.92735 -3.81221 3.69157 91.43838 97.22737 -55.63287 5.7873 -104.03867 12.103 -3.3887 39.31595 -4.47736 -9.81484 -22.20398 -6.60532 -2.20646 -3.30619 43.73802 9.59457 4.75197 -27.66951 -6.54659 2.34597 3.37241
